<?xml version="1.0" encoding="UTF-8"?>
<svg width="127px" height="44px" viewBox="0 0 127 44" version="1.1" xmlns="http://www.w3.org/2000/svg" xmlns:xlink="http://www.w3.org/1999/xlink">
    <!-- Generator: Sketch 55 (78076) - https://sketchapp.com -->
    <title>by_syncfusion_with_bold</title>
    <desc>Created with Sketch.</desc>
    <g id="by_syncfusion_with_bold" stroke="none" stroke-width="1" fill="none" fill-rule="evenodd">
        <g id="Group-5-Copy" transform="translate(2.000000, 2.000000)" fill-rule="nonzero">
            <g id="BoldBI-by-Syncfusion-2">
                <g id="BoldBI-by-Syncfusion">
                    <g id="Group">
                        <g fill="#FF4800" id="Path">
                            <path d="M7.79286713,0.352790698 L15.3190909,0.352790698 C17.3963287,0.352790698 19.0822028,2.03930233 19.0822028,4.11732558 L19.0822028,7.88186047 C19.0822028,9.95988372 17.3963287,11.6463953 15.3190909,11.6463953 L0.266643357,11.6463953 L0.266643357,7.88186047 C0.266643357,3.72151163 3.63409091,0.352790698 7.79286713,0.352790698 Z"></path>
                            <path d="M7.79286713,0.352790698 L15.3190909,0.352790698 C17.3963287,0.352790698 19.0822028,2.03930233 19.0822028,4.11732558 L19.0822028,7.88186047 C19.0822028,9.95988372 17.3963287,11.6463953 15.3190909,11.6463953 L0.266643357,11.6463953 L0.266643357,7.88186047 C0.266643357,3.72151163 3.63409091,0.352790698 7.79286713,0.352790698 Z"></path>
                            <path d="M0.266643357,15.4109302 L15.3190909,15.4109302 C17.3963287,15.4109302 19.0822028,17.0974419 19.0822028,19.1754651 L19.0822028,26.7045349 C19.0822028,28.7825581 17.3963287,30.4690698 15.3190909,30.4690698 L7.79286713,30.4690698 C3.63839161,30.4690698 0.266643357,27.0960465 0.266643357,22.94 L0.266643357,15.4109302 Z"></path>
                            <path d="M26.6084266,15.4109302 L30.3715385,15.4109302 L30.3715385,22.94 C30.3715385,27.0960465 26.9997902,30.4690698 22.8453147,30.4690698 L22.8453147,30.4690698 L22.8453147,19.1754651 C22.8453147,17.0931395 24.5268881,15.4109302 26.6084266,15.4109302 Z"></path>
                            <path d="M22.8453147,0.352790698 L22.8453147,0.352790698 C26.9997902,0.352790698 30.3715385,3.72581395 30.3715385,7.88186047 L30.3715385,11.6463953 L26.6084266,11.6463953 C24.5311888,11.6463953 22.8453147,9.95988372 22.8453147,7.88186047 L22.8453147,0.352790698 L22.8453147,0.352790698 Z"></path>
                        </g>
                        <g transform="translate(43.437063, 6.023256)" fill="#283A5E">
                            <path d="M0.146223776,17.9622093 L0.146223776,0.197906977 L7.02304196,0.197906977 C10.3345804,0.197906977 12.3903147,2.12534884 12.3903147,5.00790698 C12.3903147,6.72023256 11.5043706,8.04104651 10.196958,8.60034884 C11.9602448,9.0822093 13.2934615,10.6310465 13.2934615,12.7736047 C13.2934615,15.7938372 11.0872028,17.9622093 7.84017483,17.9622093 L0.146223776,17.9622093 Z M6.70479021,3.57523256 L4.21898601,3.57523256 L4.21898601,7.25372093 L6.70479021,7.25372093 C7.74555944,7.25372093 8.48097902,6.59546512 8.48097902,5.41232558 C8.48097902,4.23348837 7.74125874,3.57523256 6.70479021,3.57523256 Z M7.22517483,10.5019767 L4.21898601,10.5019767 L4.21898601,14.589186 L7.22517483,14.589186 C8.34335664,14.589186 9.12608392,13.7760465 9.12608392,12.5455814 C9.12608392,11.3022093 8.33905594,10.5019767 7.22517483,10.5019767 Z" id="Shape"></path>
                            <path d="M22.3722378,4.51313953 C26.5697203,4.51313953 29.7307343,7.53337209 29.7307343,11.3925581 C29.7307343,15.2517442 26.574021,18.2719767 22.3722378,18.2719767 C18.1704545,18.2719767 15.0137413,15.2517442 15.0137413,11.3925581 C15.0137413,7.53337209 18.1747552,4.51313953 22.3722378,4.51313953 Z M22.3722378,14.6881395 C24.2602448,14.6881395 25.6837762,13.2683721 25.6837762,11.3882558 C25.6837762,9.52104651 24.2645455,8.08837209 22.3722378,8.08837209 C20.4799301,8.08837209 19.0606993,9.52104651 19.0606993,11.3882558 C19.0606993,13.2683721 20.4842308,14.6881395 22.3722378,14.6881395 Z" id="Shape"></path>
                            <polygon id="Path" points="32.1047203 0.197906977 36.1774825 0.197906977 36.1774825 17.9622093 32.1047203 17.9622093"></polygon>
                            <path d="M44.7530769,4.51313953 C46.4776573,4.51313953 47.9011888,5.17139535 48.9247552,6.26418605 L48.9247552,0.197906977 L52.933007,0.197906977 L52.933007,17.9622093 L48.9247552,17.9622093 L48.9247552,16.5166279 C47.8968881,17.6094186 46.4776573,18.2676744 44.7530769,18.2676744 C41.1361888,18.2676744 38.5772727,15.2474419 38.5772727,11.3882558 C38.5772727,7.52906977 41.1361888,4.51313953 44.7530769,4.51313953 Z M45.7551399,14.6881395 C47.5313287,14.6881395 48.9247552,13.2683721 48.9247552,11.3882558 C48.9247552,9.52104651 47.5313287,8.08837209 45.7551399,8.08837209 C43.9918531,8.08837209 42.6242308,9.52104651 42.6242308,11.3882558 C42.6199301,13.2683721 43.9918531,14.6881395 45.7551399,14.6881395 Z" id="Shape"></path>
                            <path d="M59.0744056,17.9622093 L59.0744056,0.197906977 L65.9512238,0.197906977 C69.2627622,0.197906977 71.3184965,2.12534884 71.3184965,5.00790698 C71.3184965,6.72023256 70.4325524,8.04104651 69.1251399,8.60034884 C70.8884266,9.0822093 72.2216434,10.6310465 72.2216434,12.7736047 C72.2216434,15.7938372 70.0153846,17.9622093 66.7683566,17.9622093 L59.0744056,17.9622093 Z M65.632972,3.57523256 L63.1471678,3.57523256 L63.1471678,7.25372093 L65.632972,7.25372093 C66.6737413,7.25372093 67.4091608,6.59546512 67.4091608,5.41232558 C67.4091608,4.23348837 66.6737413,3.57523256 65.632972,3.57523256 Z M66.1533566,10.5019767 L63.1471678,10.5019767 L63.1471678,14.589186 L66.1533566,14.589186 C67.2715385,14.589186 68.0542657,13.7760465 68.0542657,12.5455814 C68.0542657,11.3022093 67.2715385,10.5019767 66.1533566,10.5019767 Z" id="Shape"></path>
                            <polygon id="Path" points="79.2962937 0.197906977 79.2962937 17.9622093 75.0988112 17.9622093 75.0988112 0.197906977"></polygon>
                        </g>
                    </g>
                </g>
            </g>
            <path d="M46.7345441,37 L43.7545436,36.9999989 L43.7545436,29.9999989 L46.3895441,29.9999989 C47.6895443,29.9999989 48.4595444,30.739999 48.4595444,31.8949992 C48.4595444,32.5849993 48.1145443,33.0649994 47.6145443,33.2849994 C48.2945444,33.4699994 48.8345445,34.0849995 48.8345445,34.9599997 C48.8345445,36.1599999 48.0095443,37 46.7345441,37 Z M47.0795442,32.0049992 C47.0795442,31.4599991 46.7495441,31.174999 46.279544,31.174999 L45.1495439,31.174999 L45.1495439,32.8299993 L46.279544,32.8299993 C46.7495441,32.8299993 47.0795442,32.5449993 47.0795442,32.0049992 Z M47.4145442,34.8949997 C47.4145442,34.3199996 47.0645442,33.9599995 46.5645441,33.9599995 L45.1495439,33.9599995 L45.1495439,35.8249998 L46.5645441,35.8249998 C47.0645442,35.8249998 47.4145442,35.4599997 47.4145442,34.8949997 Z M52.2228769,39.3200004 L50.7878767,39.3200004 L51.6978768,37 L49.7978765,31.8199992 L51.2278768,31.8199992 L52.3778769,35.2599997 L53.5478771,31.8199992 L54.9778774,31.8199992 L52.2228769,39.3200004 Z M59.7795426,35.6849998 L60.3945427,35.0349997 C60.9245428,35.5849998 61.4645429,35.9049998 62.199543,35.9049998 C62.8745431,35.9049998 63.3645432,35.5699998 63.3645432,35.0499997 C63.3645432,34.5849996 63.0695431,34.2049995 61.944543,33.9649995 C60.5445427,33.6699995 59.7995426,32.9449993 59.7995426,31.8999992 C59.7995426,30.714999 60.7645428,29.8799988 62.129543,29.8799988 C63.4545432,29.8799988 64.4695434,30.5649989 64.6445434,31.9999992 L63.2145432,31.9999992 C63.1095431,31.4049991 62.7345431,31.084999 62.189543,31.084999 C61.6445429,31.084999 61.2345428,31.3699991 61.2345428,31.7949991 C61.2345428,32.2699992 61.5845429,32.5949993 62.5695431,32.8199993 C64.1345433,33.1799994 64.7995434,33.9099995 64.7995434,35.0099997 C64.7995434,36.2349999 63.8245433,37.12 62.229543,37.12 C61.3695429,37.12 60.4795427,36.6699999 59.7795426,35.6849998 Z M68.1378759,39.3200004 L66.7028757,39.3200004 L67.6128758,37 L65.7128755,31.8199992 L67.1428758,31.8199992 L68.2928759,35.2599997 L69.4628761,31.8199992 L70.8928764,31.8199992 L68.1378759,39.3200004 Z M75.0562091,31.6999991 C76.2712093,31.6999991 77.1112094,32.5399993 77.1112094,33.7949995 L77.1112094,37 L75.7362092,37 L75.7362092,33.9399995 C75.7362092,33.3649994 75.2862091,32.9149993 74.756209,32.9149993 C74.1212089,32.9149993 73.5812088,33.3999994 73.5812088,34.1799995 L73.5812088,37 L72.2062086,37 L72.2062086,31.8199992 L73.5812088,31.8199992 L73.5812088,32.3999992 C73.9462089,31.9599992 74.461209,31.6999991 75.0562091,31.6999991 Z M82.9445423,35.1099997 L83.6745424,35.6749998 C83.1545423,36.6349999 82.3745422,37.12 81.374542,37.12 C79.7295418,37.12 78.5495416,35.9249998 78.5495416,34.4099996 C78.5495416,32.8949993 79.7295418,31.6999991 81.274542,31.6999991 C82.5995422,31.6999991 83.5045424,32.4199992 83.8145424,33.5599994 L82.3195422,33.5599994 C82.1545421,33.1649994 81.7945421,32.9149993 81.274542,32.9149993 C80.5295419,32.9149993 79.9295418,33.5699994 79.9295418,34.4099996 C79.9295418,35.2549997 80.5295419,35.9049998 81.424542,35.9049998 C82.0495421,35.9049998 82.5695422,35.5999998 82.9445423,35.1099997 Z M88.2628751,29.7499988 L88.2628751,30.844999 C88.1278751,30.829999 87.942875,30.819999 87.797875,30.819999 C87.2278749,30.819999 87.0078749,31.054999 87.0078749,31.5399991 L87.0078749,31.8199992 L88.2628751,31.8199992 L88.2628751,33.0149993 L87.0078749,33.0149993 L87.0078749,37 L85.6328747,37 L85.6328747,33.0149993 L84.7578745,33.0149993 L84.7578745,31.8199992 L85.6328747,31.8199992 L85.6328747,31.5249991 C85.6328747,30.2999989 86.3178748,29.6999988 87.667875,29.6999988 C87.877875,29.6999988 88.1028751,29.7249988 88.2628751,29.7499988 Z M91.6462079,37.12 C90.4312077,37.12 89.5912076,36.2799999 89.5912076,35.0249997 L89.5912076,31.8199992 L90.9662078,31.8199992 L90.9662078,34.8799997 C90.9662078,35.4549997 91.4162079,35.9049998 91.946208,35.9049998 C92.5962081,35.9049998 93.1212082,35.3949997 93.1212082,34.5799996 L93.1212082,31.8199992 L94.4962084,31.8199992 L94.4962084,37 L93.1212082,37 L93.1212082,36.4249999 C92.7562081,36.86 92.236208,37.12 91.6462079,37.12 Z M96.1495406,36.0399998 L96.7145407,35.4049997 C97.1195407,35.7999998 97.5195408,36.0199998 98.0295409,36.0199998 C98.504541,36.0199998 98.789541,35.8199998 98.789541,35.5049998 C98.789541,35.1949997 98.569541,35.0049997 97.8995409,34.8699997 C96.7745407,34.6399996 96.2145406,34.0699995 96.2145406,33.2099994 C96.2145406,32.3399992 96.9595407,31.6999991 98.0845409,31.6999991 C99.2545411,31.6999991 99.9395412,32.3449992 100.104541,33.3349994 L98.809541,33.3349994 C98.739541,32.9999993 98.514541,32.7999993 98.1545409,32.7999993 C97.8295409,32.7999993 97.5595408,32.9649993 97.5595408,33.2299994 C97.5595408,33.5049994 97.8045408,33.7299995 98.3845409,33.8499995 C99.5845411,34.0949995 100.134541,34.6449996 100.134541,35.5199998 C100.134541,36.4349999 99.3695411,37.12 98.0845409,37.12 C97.3095408,37.12 96.6795407,36.745 96.1495406,36.0399998 Z M101.692874,37 L101.692874,31.8199992 L103.067874,31.8199992 L103.067874,37 L101.692874,37 Z M101.567874,30.4399989 C101.567874,29.9899989 101.922874,29.6449988 102.382874,29.6449988 C102.842874,29.6449988 103.197874,29.9899989 103.197874,30.4399989 C103.197874,30.889999 102.842874,31.2349991 102.382874,31.2349991 C101.922874,31.2349991 101.567874,30.889999 101.567874,30.4399989 Z M104.641207,34.4099996 C104.641207,32.8949993 105.871207,31.6999991 107.516207,31.6999991 C109.166207,31.6999991 110.391208,32.8949993 110.391208,34.4099996 C110.391208,35.9249998 109.166207,37.12 107.516207,37.12 C105.871207,37.12 104.641207,35.9249998 104.641207,34.4099996 Z M106.021207,34.4099996 C106.021207,35.2549997 106.671207,35.9049998 107.516207,35.9049998 C108.366207,35.9049998 109.016207,35.2549997 109.016207,34.4099996 C109.016207,33.5699994 108.366207,32.9149993 107.516207,32.9149993 C106.671207,32.9149993 106.021207,33.5699994 106.021207,34.4099996 Z M114.78454,31.6999991 C115.99954,31.6999991 116.83954,32.5399993 116.83954,33.7949995 L116.83954,37 L115.46454,37 L115.46454,33.9399995 C115.46454,33.3649994 115.01454,32.9149993 114.48454,32.9149993 C113.84954,32.9149993 113.30954,33.3999994 113.30954,34.1799995 L113.30954,37 L111.93454,37 L111.93454,31.8199992 L113.30954,31.8199992 L113.30954,32.3999992 C113.67454,31.9599992 114.18954,31.6999991 114.78454,31.6999991 Z" id="BySyncfusion" fill="#283A5E"></path>
        </g>
    </g>
</svg>