<?xml version="1.0" encoding="UTF-8"?>
<svg width="160px" height="32px" viewBox="0 0 160 32" version="1.1" xmlns="http://www.w3.org/2000/svg" xmlns:xlink="http://www.w3.org/1999/xlink">
    <!-- Generator: Sketch 57.1 (83088) - https://sketch.com -->
    <title>logo_power by syncfusion</title>
    <desc>Created with Sketch.</desc>
    <g id="logo_power-by-syncfusion" stroke="none" stroke-width="1" fill="none" fill-rule="evenodd">
        <g id="Group-4" transform="translate(4.000000, 6.000000)">
            <g id="Syncfusion" transform="translate(63.009766, 0.000000)" fill="#000000">
                <path d="M28.0012322,9.99081726 L28.0012322,14.1698071 C28.0012322,14.6982628 28.0787979,15.0442593 28.2352667,15.2091483 C28.3903982,15.3726858 28.7153719,15.4564818 29.2101878,15.4564818 L30.6759128,15.4564818 L30.6759128,9.99081726 L32.5107438,9.99081726 L32.5107438,16.8066794 C32.5107438,17.7365451 32.2967693,18.4231321 31.8688204,18.8704948 C31.4395342,19.316506 30.7842374,19.5408632 29.9015928,19.5408632 L26.3215327,19.5408632 L26.3215327,18.1203851 L29.5886551,18.1203851 C29.937701,18.1203851 30.2065064,18.0338859 30.3950714,17.8608877 C30.582299,17.6878894 30.6759128,17.4405559 30.6759128,17.1121295 L30.6759128,16.9958962 L29.0630804,16.9958962 C28.0266416,16.9958962 27.2884298,16.7891092 26.8471074,16.3768867 C26.4057851,15.9646643 26.185124,15.2753742 26.185124,14.3117197 L26.185124,9.99081726 L28.0012322,9.99081726 Z M24.847465,7.49311295 L24.847465,9.18930706 L19.8450234,9.18930706 C19.3057974,9.18930706 18.9119044,9.2893217 18.6606278,9.48799941 C18.4093512,9.68802868 18.284392,10.0042912 18.284392,10.4367869 C18.284392,10.7854865 18.3903357,11.0463355 18.6049395,11.2193338 C18.8195433,11.3909805 19.1387325,11.4774797 19.562507,11.4774797 L22.2436962,11.4774797 C23.3479549,11.4774797 24.135741,11.6869698 24.6016214,12.1018954 C25.0702183,12.5181725 25.3024793,13.2128687 25.3024793,14.1805779 C25.3024793,15.1658572 25.0335455,15.8875844 24.4943195,16.3498142 C23.9550935,16.812044 23.1061861,17.0431589 21.9489555,17.0431589 L16.5580539,17.0431589 L16.5580539,15.3456132 L21.6270498,15.3456132 C22.2043069,15.3456132 22.6117824,15.2618172 22.84676,15.0942251 C23.0830958,14.926633 23.2012637,14.650917 23.2012637,14.2630224 C23.2012637,13.8629638 23.0926036,13.5791385 22.8766415,13.4101949 C22.6606795,13.2412513 22.2898767,13.1561037 21.7655915,13.1561037 L19.3723518,13.1561037 C18.268093,13.1561037 17.4599332,12.9358012 16.9492305,12.4951962 C16.4371695,12.0559427 16.1818182,11.3639496 16.1818182,10.4151621 C16.1818182,9.40150027 16.450752,8.66220292 16.9872615,8.19456693 C17.5251293,7.72693094 18.3794697,7.49311295 19.5489245,7.49311295 L24.847465,7.49311295 Z M52.9586777,7.49311295 L52.9586777,8.83403942 L52.0788199,8.83403942 C51.7607175,8.83403942 51.5346618,8.88405382 51.4020063,8.98273087 C51.2666436,9.08140792 51.2003158,9.24361676 51.2003158,9.47206089 L51.2003158,10.0384401 L52.9586777,10.0384401 L52.9586777,11.4388432 L51.2003158,11.4388432 L51.2003158,17.0431589 L49.2808723,17.0431589 L49.2808723,11.4388432 L47.9570248,11.4388432 L47.9570248,10.0384401 L49.2808723,10.0384401 L49.2808723,9.30714856 C49.2808723,8.59478137 49.4135278,8.11356179 49.6788387,7.86484156 C49.9414424,7.61747306 50.4490527,7.49311295 51.2003158,7.49311295 L52.9586777,7.49311295 Z M75.6232477,9.84389348 C76.7366449,9.84389348 77.626828,10.1717436 78.2937971,10.8274437 C78.9580929,11.4844876 79.2909091,12.3592023 79.2909091,13.4502444 C79.2909091,14.5412865 78.9607661,15.4146576 78.2991435,16.0663268 C77.6388575,16.7179961 76.7446646,17.0431589 75.6232477,17.0431589 C74.5018309,17.0431589 73.6063013,16.7179961 72.936659,16.0636396 C72.2683534,15.4106267 71.9355372,14.5399428 71.9355372,13.4502444 C71.9355372,12.3592023 72.2683534,11.4844876 72.936659,10.8274437 C73.6063013,10.1717436 74.5018309,9.84389348 75.6232477,9.84389348 Z M37.563024,9.99081726 C38.6015188,9.99081726 39.3427294,10.1853361 39.786656,10.575706 C40.2319156,10.9674083 40.4545455,11.6149161 40.4545455,12.5182295 L40.4545455,16.8962351 L38.6255148,16.8962351 L38.6255148,12.7420594 C38.6255148,12.2264513 38.5441949,11.8920388 38.3842214,11.7388219 C38.2242479,11.5842727 37.9043008,11.5083305 37.4230471,11.5083305 L35.9592894,11.5083305 L35.9592894,16.8962351 L34.1289256,16.8962351 L34.1289256,9.99081726 L37.563024,9.99081726 Z M47.6628099,9.99081726 L47.6628099,11.4886346 L45.699431,11.4886346 C44.8302618,11.4886346 44.23195,11.6365508 43.9044956,11.932383 C43.5756936,12.2282153 43.4112927,12.7425903 43.4112927,13.475508 C43.4112927,13.8979352 43.4786701,14.2484031 43.6120775,14.5229141 C43.7468324,14.7987577 43.9543549,15.0226308 44.2346451,15.1945333 C44.3720951,15.2758206 44.533801,15.3331214 44.7170677,15.3677684 C44.9003344,15.3997503 45.2277888,15.4184064 45.699431,15.4184064 L47.6628099,15.4184064 L47.6628099,16.8962351 L45.1550211,16.8962351 C44.518978,16.8962351 43.996129,16.8309388 43.5891691,16.7016787 C43.1781667,16.5710861 42.8237613,16.3605388 42.5219103,16.0713695 C42.1958034,15.7568811 41.9424642,15.3717662 41.7591975,14.9160246 C41.5745833,14.460283 41.4842975,13.980555 41.4842975,13.4715103 C41.4842975,12.9384792 41.5745833,12.4414277 41.7565024,11.9776907 C41.937074,11.5152862 42.1917608,11.1275061 42.5219103,10.8156829 C42.8278039,10.5265135 43.1875995,10.3159662 43.6012971,10.1853736 C44.0149946,10.054781 44.5311059,9.99081726 45.1550211,9.99081726 L47.6628099,9.99081726 Z M55.362262,9.99081726 L55.362262,14.2262645 C55.362262,14.6872475 55.4425194,14.9936812 55.6043718,15.1482304 C55.7648866,15.3014473 56.0859162,15.3787219 56.5647852,15.3787219 L58.0375083,15.3787219 L58.0375083,9.99081726 L59.8727273,9.99081726 L59.8727273,16.8962351 L56.4163091,16.8962351 C55.405066,16.8962351 54.6720485,16.696387 54.2212695,16.2966908 C53.7704905,15.8956623 53.5471074,15.2548161 53.5471074,14.3714875 L53.5471074,9.99081726 L55.362262,9.99081726 Z M67.6115834,9.99081726 L67.6115834,11.4310559 L64.3544214,11.4310559 C63.8223108,11.4310559 63.4769763,11.4776871 63.3184181,11.5709495 C63.1585162,11.6628797 63.0778934,11.8280874 63.0778934,12.0665728 C63.0778934,12.2810764 63.1491102,12.4409549 63.2902001,12.5422113 C63.4286027,12.6448 63.6503154,12.6954281 63.9539947,12.6954281 L65.6215434,12.6954281 C66.3820853,12.6954281 66.9625697,12.8712945 67.3629963,13.2203625 C67.7647667,13.5720951 67.9636364,14.078377 67.9636364,14.7418726 C67.9636364,15.3787219 67.7849224,15.8983269 67.4315257,16.2966908 C67.0767853,16.696387 66.6212664,16.8962351 66.0622815,16.8962351 L61.3135973,16.8962351 L61.3135973,15.4559965 L65.1888676,15.4559965 C65.534202,15.4559965 65.7841328,15.404036 65.9413473,15.2974503 C66.1012492,15.192197 66.1791846,15.0229923 66.1791846,14.7885038 C66.1791846,14.5553477 66.0999055,14.3834784 65.9386598,14.2768927 C65.7801016,14.1689748 65.5301709,14.1143496 65.1888676,14.1143496 L63.5965669,14.1143496 C62.657311,14.1143496 62.0217344,13.9717913 61.6925246,13.6853424 C61.3606273,13.3988934 61.1966942,12.8899469 61.1966942,12.1585029 C61.1966942,11.415068 61.3969076,10.8688166 61.7946468,10.5170839 C62.1937298,10.1666836 62.8118381,9.99081726 63.6489717,9.99081726 L67.6115834,9.99081726 Z M71.0528926,9.98523366 L71.0528926,16.8962351 L69.1404959,16.8962351 L69.1404959,9.98523366 L71.0528926,9.98523366 Z M83.7554834,9.99081726 C84.7928637,9.99081726 85.535564,10.1853361 85.9795841,10.575706 C86.4236042,10.9674083 86.646281,11.6149161 86.646281,12.5182295 L86.646281,16.8962351 L84.8168648,16.8962351 L84.8168648,12.7420594 C84.8168648,12.2264513 84.7368612,11.8920388 84.5768539,11.7388219 C84.4155133,11.5842727 84.0968322,11.5083305 83.6154771,11.5083305 L82.1500773,11.5083305 L82.1500773,16.8962351 L80.3206612,16.8962351 L80.3206612,9.99081726 L83.7554834,9.99081726 Z M4.41322314,12.6354454 L4.41322314,16.8962351 L0,16.8962351 L0,12.6354454 L4.41322314,12.6354454 Z M9.56198347,12.6354454 L9.56198347,16.8962351 L5.14876033,16.8962351 L5.14876033,12.6354454 L9.56198347,12.6354454 Z M14.7107438,12.6354454 L14.7107438,16.8962351 L10.2975207,16.8962351 L10.2975207,12.6354454 L14.7107438,12.6354454 Z M75.6098816,11.3541537 C75.0591978,11.3541537 74.6274723,11.5395771 74.3173785,11.9090803 C74.0032748,12.2799271 73.8482279,12.7932006 73.8482279,13.4502444 C73.8482279,14.1126628 74.0032748,14.6286236 74.3133687,14.9967831 C74.6221259,15.3689736 75.0538513,15.5517097 75.6098816,15.5517097 C76.1605655,15.5517097 76.5949641,15.3689736 76.9090678,14.9967831 C77.2218348,14.6286236 77.3808916,14.1126628 77.3808916,13.4502444 C77.3808916,12.7891696 77.224508,12.2745525 76.911741,11.9077366 C76.6003106,11.5382335 76.1645753,11.3541537 75.6098816,11.3541537 Z M4.41322314,7.49311295 L4.41322314,11.9008264 L0,11.9008264 L0,7.49311295 L4.41322314,7.49311295 Z M9.56198347,7.49311295 L9.56198347,11.9008264 L5.14876033,11.9008264 L5.14876033,7.49311295 L9.56198347,7.49311295 Z M14.7107438,7.49311295 L14.7107438,11.9008264 L10.2975207,11.9008264 L10.2975207,7.49311295 L14.7107438,7.49311295 Z M87.767329,8.52157943 C88.360052,8.52157943 88.8528926,9.02299294 88.8528926,9.6202263 C88.8528926,10.2318983 88.360052,10.7254362 87.7502439,10.7254362 C87.1351789,10.7254362 86.646281,10.2318983 86.646281,9.6136633 C86.646281,9.00724173 87.1456928,8.52157943 87.767329,8.52157943 Z M87.7647006,8.69878054 C87.4821386,8.69878054 87.2468894,8.802476 87.0642098,9.00724173 C86.913072,9.17394203 86.8263321,9.39445897 86.8263321,9.6136633 C86.8263321,10.1334532 87.2363754,10.5456099 87.7502439,10.5456099 C88.2575411,10.5456099 88.6728415,10.1295154 88.6728415,9.6202263 C88.6728415,9.121438 88.2575411,8.69878054 87.7647006,8.69878054 Z M71.0528926,7.49311295 L71.0528926,9.20652927 L69.1404959,9.20652927 L69.1404959,7.49311295 L71.0528926,7.49311295 Z M4.41322314,2.35078053 L4.41322314,6.75849403 L0,6.75849403 L0,2.35078053 L4.41322314,2.35078053 Z M9.56198347,2.35078053 L9.56198347,6.75849403 L5.14876033,6.75849403 L5.14876033,2.35078053 L9.56198347,2.35078053 Z M14.1650391,0 L17.5057851,2.83555605 L14.6680188,6.1707989 L11.3272727,3.33657535 L14.1650391,0 Z M87.7095024,9.54147026 C87.8501263,9.54147026 87.9237238,9.47584021 87.9237238,9.35639354 C87.9237238,9.22775866 87.8527547,9.17131683 87.6937315,9.17131683 L87.6516758,9.17131683 L87.6516758,9.54147026 L87.7095024,9.54147026 Z M88.2062857,10.2739015 L87.9828647,10.2739015 L87.6516758,9.79086441 L87.6516758,10.2739015 L87.4689962,10.2739015 L87.4689962,8.99411572 L87.6871603,8.99411572 C87.963151,8.99411572 88.1103461,9.121438 88.1103461,9.35901874 C88.1103461,9.55065846 88.001264,9.67666814 87.8146417,9.70817056 L88.2062857,10.2739015 Z" id="Combined-Shape"></path>
            </g>
            <path d="M2.74220151,6.4054739 C3.28928534,6.4054739 3.75905679,6.50092826 4.15152998,6.69183984 C4.54400316,6.88275142 4.84132687,7.14715155 5.04351002,7.48504815 C5.24569317,7.82294475 5.34678324,8.21320948 5.34678324,8.65585403 C5.34678324,9.12890928 5.24654267,9.53268966 5.04605853,9.8672073 C4.8455744,10.2017249 4.55079918,10.4559883 4.16172403,10.6300051 C3.77264889,10.8040218 3.29947944,10.8910289 2.74220151,10.8910289 L0.988823592,10.8910289 L0.988823592,13.7850988 L0,13.7850988 L0,6.4054739 L2.74220151,6.4054739 Z M2.74220151,10.1003548 C3.29268337,10.1003548 3.6995921,9.97195601 3.96293991,9.71515459 C4.22628772,9.45835317 4.35795964,9.10863543 4.35795964,8.66599088 C4.35795964,8.39905256 4.30104339,8.15492592 4.18720918,7.93360365 C4.07337497,7.71228137 3.89498074,7.53488832 3.65202115,7.40141916 C3.40906156,7.26795 3.10579138,7.20121642 2.74220151,7.20121642 L0.988823592,7.20121642 L0.988823592,10.1003548 L2.74220151,10.1003548 Z M6.32745167,10.9873289 C6.32745167,10.4568313 6.42939122,9.98040421 6.6332734,9.55803345 C6.83715557,9.1356627 7.1285328,8.80368426 7.50741384,8.56208819 C7.88629488,8.32049212 8.32718346,8.19969589 8.83009282,8.19969589 C9.33979825,8.19969589 9.78493432,8.32049212 10.1655144,8.56208819 C10.5460944,8.80368426 10.8383212,9.1356627 11.0422033,9.55803345 C11.2460855,9.98040421 11.3480251,10.4568313 11.3480251,10.9873289 L11.3480251,11.1039027 C11.3480251,11.6344004 11.2460855,12.1099827 11.0422033,12.530664 C10.8383212,12.9513452 10.5469439,13.2824789 10.1680629,13.524075 C9.78918185,13.7656711 9.34659427,13.8864673 8.84028688,13.8864673 C8.33397948,13.8864673 7.89139191,13.7656711 7.51251087,13.524075 C7.13362983,13.2824789 6.8414031,12.9513452 6.63582191,12.530664 C6.43024072,12.1099827 6.32745167,11.6344004 6.32745167,11.1039027 L6.32745167,10.9873289 Z M7.28059606,11.1039027 C7.28059606,11.475589 7.3392113,11.8151699 7.45644355,12.1226559 C7.5736758,12.4301418 7.74952154,12.6742684 7.98398604,12.8550431 C8.21845053,13.0358178 8.50388129,13.1262038 8.84028688,13.1262038 C9.17329443,13.1262038 9.45702619,13.0358178 9.69149069,12.8550431 C9.92595519,12.6742684 10.1018009,12.4301418 10.2190332,12.1226559 C10.3362654,11.8151699 10.3948807,11.475589 10.3948807,11.1039027 L10.3948807,10.9873289 C10.3948807,10.6156427 10.3354159,10.2760617 10.2164847,9.96857577 C10.0975534,9.66108986 9.92085816,9.4161185 9.68639366,9.23365433 C9.45192916,9.05119017 9.1664984,8.95995945 8.83009282,8.95995945 C8.49708527,8.95995945 8.214203,9.05119017 7.98143752,9.23365433 C7.74867204,9.4161185 7.5736758,9.66108986 7.45644355,9.96857577 C7.3392113,10.2760617 7.28059606,10.6156427 7.28059606,10.9873289 L7.28059606,11.1039027 Z M19.6123477,8.30106437 L18.0118806,13.7850988 L17.2422293,13.7850988 L15.9068077,9.64419665 L14.6019683,13.7850988 L13.832317,13.7850988 L12.2318499,8.30106437 L13.1798973,8.30106437 L14.2604674,12.3710086 L15.5398216,8.30106437 L16.309473,8.30106437 L17.6092154,12.4622402 L18.6693973,8.30106437 L19.6123477,8.30106437 Z M25.2109242,11.3015712 L21.4798991,11.3015712 C21.4900932,11.6428468 21.5614509,11.9520175 21.6939743,12.2290928 C21.8264977,12.506168 22.0142364,12.7249527 22.257196,12.8854536 C22.5001556,13.0459545 22.7847369,13.1262038 23.1109484,13.1262038 C23.4303638,13.1262038 23.7064501,13.0620044 23.9392155,12.9336036 C24.171981,12.8052029 24.3801076,12.6210521 24.5636016,12.3811455 L25.1395658,12.8271668 C24.9356836,13.1380316 24.6638448,13.392295 24.3240412,13.5899645 C23.9842376,13.787634 23.5628874,13.8864673 23.0599781,13.8864673 C22.5570687,13.8864673 22.1136316,13.7732736 21.7296535,13.5468829 C21.3456754,13.3204922 21.0492012,13.0062531 20.840222,12.6041561 C20.6312428,12.2020591 20.5267547,11.7459056 20.5267547,11.2356817 L20.5267547,11.0177395 C20.5267547,10.4466942 20.6388882,9.94745948 20.8631586,9.52002027 C21.087429,9.09258107 21.3839032,8.76567101 21.7525902,8.53928028 C22.1212771,8.31288956 22.5162929,8.19969589 22.9376494,8.19969589 C23.4507528,8.19969589 23.8763505,8.31373429 24.2144551,8.5418145 C24.5525597,8.7698947 24.8031611,9.08497856 24.9662668,9.48707552 C25.1293726,9.88917248 25.2109242,10.3537733 25.2109242,10.880892 L25.2109242,11.3015712 Z M24.2577798,10.4703497 C24.2305955,10.041221 24.1142146,9.68221128 23.9086334,9.39330968 C23.7030522,9.10440808 23.3793941,8.95995945 22.9376494,8.95995945 C22.5570693,8.95995945 22.2402072,9.09765025 21.9870535,9.37303599 C21.7338998,9.64842172 21.575044,10.0378417 21.5104813,10.5413077 L24.2577798,10.5413077 L24.2577798,10.4703497 Z M28.7553982,8.19969589 C28.8165628,8.19969589 28.8930175,8.20729845 28.9847645,8.2225038 C29.0765114,8.23770915 29.1393742,8.253759 29.1733545,8.27065383 L29.1733545,9.13735428 C29.027239,9.11032255 28.8726306,9.09680689 28.7095249,9.09680689 C28.3969056,9.09680689 28.1361102,9.16607466 27.927131,9.30461227 C27.7181517,9.44314987 27.5609949,9.63743751 27.4556558,9.88748099 L27.4556558,13.7850988 L26.5025114,13.7850988 L26.5025114,8.30106437 L27.4301707,8.30106437 L27.4505588,8.92448049 C27.5932763,8.6947108 27.7733695,8.51647301 27.9908438,8.38976178 C28.2083181,8.26305056 28.463167,8.19969589 28.7553982,8.19969589 Z M34.6801845,11.3015712 L30.9491594,11.3015712 C30.9593536,11.6428468 31.0307112,11.9520175 31.1632347,12.2290928 C31.2957581,12.506168 31.4834968,12.7249527 31.7264563,12.8854536 C31.9694159,13.0459545 32.2539972,13.1262038 32.5802087,13.1262038 C32.8996241,13.1262038 33.1757104,13.0620044 33.4084759,12.9336036 C33.6412413,12.8052029 33.8493679,12.6210521 34.0328619,12.3811455 L34.6088261,12.8271668 C34.404944,13.1380316 34.1331052,13.392295 33.7933015,13.5899645 C33.4534979,13.787634 33.0321477,13.8864673 32.5292384,13.8864673 C32.026329,13.8864673 31.582892,13.7732736 31.1989139,13.5468829 C30.8149358,13.3204922 30.5184616,13.0062531 30.3094823,12.6041561 C30.1005031,12.2020591 29.9960151,11.7459056 29.9960151,11.2356817 L29.9960151,11.0177395 C29.9960151,10.4466942 30.1081486,9.94745948 30.332419,9.52002027 C30.5566893,9.09258107 30.8531636,8.76567101 31.2218505,8.53928028 C31.5905374,8.31288956 31.9855532,8.19969589 32.4069097,8.19969589 C32.9200132,8.19969589 33.3456108,8.31373429 33.6837154,8.5418145 C34.02182,8.7698947 34.2724214,9.08497856 34.4355272,9.48707552 C34.5986329,9.88917248 34.6801845,10.3537733 34.6801845,10.880892 L34.6801845,11.3015712 Z M33.7270402,10.4703497 C33.6998559,10.041221 33.5834749,9.68221128 33.3778937,9.39330968 C33.1723125,9.10440808 32.8486544,8.95995945 32.4069097,8.95995945 C32.0263296,8.95995945 31.7094675,9.09765025 31.4563138,9.37303599 C31.2031601,9.64842172 31.0443043,10.0378417 30.9797416,10.5413077 L33.7270402,10.5413077 L33.7270402,10.4703497 Z M40.4010898,6 L40.4010898,13.7850988 L39.5294979,13.7850988 L39.4836246,13.2022301 C39.1098406,13.6583905 38.5865509,13.8864673 37.9137397,13.8864673 C37.4889852,13.8864673 37.1118088,13.7665158 36.7821993,13.5266092 C36.4525898,13.2867026 36.1968914,12.9555689 36.0150965,12.5331982 C35.8333015,12.1108274 35.7424054,11.6344004 35.7424054,11.1039027 L35.7424054,10.9974658 C35.7424054,10.4433154 35.832452,9.95506209 36.012548,9.53269133 C36.1926439,9.11032058 36.4474928,8.78256579 36.7771023,8.54941713 C37.1067118,8.31626847 37.4889851,8.19969589 37.9239338,8.19969589 C38.5729587,8.19969589 39.0809575,8.41425702 39.4479454,8.84338571 L39.4479454,6 L40.4010898,6 Z M38.148203,13.0957932 C38.7360633,13.0957932 39.1693064,12.8305484 39.4479454,12.3000507 L39.4479454,9.7607704 C39.31882,9.52086381 39.1480713,9.33164455 38.935694,9.19310694 C38.7233167,9.05456934 38.4642204,8.98530157 38.1583971,8.98530157 C37.8287876,8.98530157 37.5544003,9.0739981 37.3352269,9.25139382 C37.1160536,9.42878953 36.9546493,9.66953725 36.8510092,9.9736442 C36.7473691,10.2777511 36.6955498,10.6190216 36.6955498,10.9974658 L36.6955498,11.1039027 C36.6955498,11.4823469 36.7473691,11.8210831 36.8510092,12.1201216 C36.9546493,12.4191601 37.1152041,12.6565289 37.3326784,12.8322352 C37.5501528,13.0079414 37.8219916,13.0957932 38.148203,13.0957932 Z M47.367709,8.19969589 C47.8196478,8.19969589 48.2070181,8.31542375 48.5298315,8.54688292 C48.852645,8.77834209 49.0981494,9.10440743 49.2663522,9.5250887 C49.434555,9.94576997 49.5186551,10.4365574 49.5186551,10.9974658 L49.5186551,11.1039027 C49.5186551,11.6411583 49.434555,12.1201195 49.2663522,12.5408008 C49.0981494,12.9614821 48.852645,13.2909263 48.5298315,13.5291434 C48.2070181,13.7673605 47.8230458,13.8864673 47.377903,13.8864673 C46.6813056,13.8864673 46.1427249,13.6448749 45.7621449,13.1616827 L45.7162716,13.7850988 L44.8446797,13.7850988 L44.8446797,6 L45.7978241,6 L45.7978241,8.88900152 C46.1750061,8.42946214 46.6982958,8.19969589 47.367709,8.19969589 Z M48.5655107,10.9974658 C48.5655107,10.3960098 48.4508287,9.91029075 48.2214613,9.54029397 C47.9920938,9.17029719 47.6276599,8.98530157 47.1281486,8.98530157 C46.8053352,8.98530157 46.5343458,9.0621719 46.3151725,9.21591485 C46.0959992,9.36965781 45.9235514,9.57830583 45.7978241,9.84186518 L45.7978241,12.2392296 C45.9269495,12.49941 46.1027952,12.7072133 46.3253666,12.8626457 C46.5479379,13.0180782 46.8189273,13.0957932 47.1383427,13.0957932 C47.6174658,13.0957932 47.9751037,12.9107976 48.2112672,12.5408008 C48.4474307,12.170804 48.5655107,11.6918428 48.5655107,11.1039027 L48.5655107,10.9974658 Z M55,8.30106437 L52.7878895,14.6315256 C52.651968,14.9998329 52.4557344,15.3199851 52.1991827,15.5919919 C51.9426309,15.8639987 51.5934879,16 51.1517432,16 C51.0803845,16 50.9877894,15.990708 50.8739552,15.9721237 C50.760121,15.9535394 50.6743218,15.9358001 50.6165552,15.9189052 L50.6165552,15.1637101 C50.6539336,15.170468 50.6964084,15.1763811 50.7439809,15.1814496 C50.7915534,15.186518 50.8340283,15.1890522 50.8714067,15.1890522 C51.1942201,15.1890522 51.4448215,15.1223186 51.6232184,14.9888495 C51.8016153,14.8553803 51.9468792,14.6213904 52.0590144,14.2868728 L52.2679926,13.7242777 L50.3005394,8.30106437 L51.3403333,8.30106437 L52.706337,12.4064876 L53.9856913,8.30106437 L55,8.30106437 Z" id="Poweredby" fill="#676767" fill-rule="nonzero"></path>
        </g>
    </g>
</svg>