<svg width="113" height="40" viewBox="0 0 113 40" fill="none" xmlns="http://www.w3.org/2000/svg">
<path d="M36.3398 22.4515V5.04395H43.0688C46.287 5.04395 48.335 6.94561 48.335 9.72498C48.335 11.4072 47.4573 12.7238 46.2139 13.2358C47.9693 13.6746 49.2127 15.2106 49.2127 17.3317C49.2127 20.2573 47.0184 22.4515 43.8734 22.4515H36.3398ZM42.7763 8.33529H40.3626V11.9192H42.7763C43.8002 11.9192 44.5316 11.2609 44.5316 10.0907C44.5316 8.92042 43.7271 8.33529 42.7763 8.33529ZM43.2882 15.1374H40.3626V19.1602H43.2882C44.3854 19.1602 45.1168 18.3556 45.1168 17.1854C45.1168 15.942 44.3122 15.1374 43.2882 15.1374Z" fill="#283A5E"/>
<path d="M57.6902 9.28613C61.7861 9.28613 64.9312 12.2118 64.9312 16.0151C64.9312 19.8185 61.8592 22.7441 57.6902 22.7441C53.5943 22.7441 50.4492 19.8185 50.4492 16.0151C50.5224 12.2118 53.5943 9.28613 57.6902 9.28613ZM57.6902 19.2333C59.5187 19.2333 60.9084 17.8436 60.9084 16.0151C60.9084 14.1866 59.5187 12.7969 57.6902 12.7969C55.8617 12.7969 54.472 14.1866 54.472 16.0151C54.472 17.8436 55.8617 19.2333 57.6902 19.2333Z" fill="#283A5E"/>
<path d="M71.2962 5.04395H67.2734V22.4515H71.2962V5.04395Z" fill="#283A5E"/>
<path d="M79.6332 9.28613C81.3155 9.28613 82.7051 9.9444 83.7291 10.9684V5.04395H87.6787V22.4515H83.7291V21.0618C82.7051 22.159 81.3155 22.7441 79.6332 22.7441C76.1224 22.7441 73.5625 19.8184 73.5625 16.0151C73.5625 12.2118 76.1224 9.28613 79.6332 9.28613ZM80.6572 19.2333C82.4126 19.2333 83.7291 17.8436 83.7291 16.0151C83.7291 14.1866 82.3394 12.7969 80.6572 12.7969C78.9018 12.7969 77.5853 14.1866 77.5853 16.0151C77.5853 17.8436 78.9018 19.2333 80.6572 19.2333Z" fill="#283A5E"/>
<path d="M39.7055 37.4908C38.8452 37.4908 38.1282 37.1323 37.6264 36.5588V37.3474H36.3359V28.8877H37.6264V32.1855C38.1282 31.612 38.8452 31.2535 39.7055 31.2535C41.4261 31.2535 42.6449 32.6157 42.6449 34.408C42.6449 36.0569 41.4261 37.4908 39.7055 37.4908ZM39.4904 32.4006C38.415 32.4006 37.6264 33.2609 37.6264 34.3363C37.6264 35.4117 38.415 36.272 39.4904 36.272C40.5658 36.272 41.3544 35.4117 41.3544 34.3363C41.2827 33.2609 40.5658 32.4006 39.4904 32.4006Z" fill="#283A5E"/>
<path d="M44.2969 40L45.3723 37.2757L43.0781 31.3252H44.4403L46.0175 35.6267L47.5947 31.3252H48.9569L45.6591 40H44.2969Z" fill="#283A5E"/>
<path d="M53.903 35.2681C54.4766 35.9133 55.1935 36.3435 55.9821 36.3435C56.9141 36.3435 57.5594 35.9133 57.5594 35.1964C57.5594 34.5512 57.1292 34.0493 55.767 33.7625C54.1181 33.4041 53.2578 32.6155 53.2578 31.3967C53.2578 30.0345 54.3332 29.1025 55.9104 29.1025C57.3443 29.1025 58.6347 29.8912 58.7781 31.4684H57.416C57.3443 30.6798 56.7707 30.2496 55.9821 30.2496C55.1935 30.2496 54.6917 30.6798 54.6917 31.2533C54.6917 31.8985 55.1935 32.3287 56.4123 32.6155C58.2046 33.0456 58.9932 33.8342 58.9932 35.1247C58.9932 36.4869 57.9178 37.4905 56.0538 37.4905C54.9784 37.4905 53.9747 36.917 53.2578 35.985L53.903 35.2681Z" fill="#283A5E"/>
<path d="M60.6406 40L61.716 37.2757L59.4219 31.3252H60.784L62.3613 35.6267L63.9385 31.3252H65.3006L62.0028 40H60.6406Z" fill="#283A5E"/>
<path d="M71.7547 33.6192V37.2755H70.4642V33.6909C70.4642 32.9023 69.8907 32.3287 69.1021 32.3287C68.3135 32.3287 67.5248 33.0456 67.5248 33.9776V37.2755H66.2344V31.325H67.5248V32.1136C67.955 31.5401 68.6002 31.1816 69.3171 31.1816C70.8227 31.1816 71.7547 32.1853 71.7547 33.6192Z" fill="#283A5E"/>
<path d="M78.7772 35.8418C78.2037 36.9172 77.2717 37.4908 76.1246 37.4908C74.3323 37.4908 72.8984 36.1286 72.8984 34.3363C72.8984 32.544 74.2606 31.1818 75.9812 31.1818C77.4867 31.1818 78.5621 31.9704 78.9206 33.3326H77.4867C77.2717 32.7591 76.7698 32.3289 76.0529 32.3289C75.1209 32.3289 74.2606 33.1175 74.2606 34.2646C74.2606 35.4834 75.1926 36.2003 76.1963 36.2003C76.9132 36.2003 77.5584 35.8418 78.0603 35.1966L78.7772 35.8418Z" fill="#283A5E"/>
<path d="M83.365 30.0348C83.2216 30.0348 83.0065 30.0348 82.8631 30.0348C82.0745 30.0348 81.7877 30.3932 81.7877 31.0385V31.3969H83.365V32.4723H81.7877V37.2757H80.4973V32.4723H79.4219V31.3252H80.4973V30.9668C80.4973 29.5329 81.2142 28.8877 82.7197 28.8877C82.9348 28.8877 83.2216 28.8877 83.365 28.9594V30.0348Z" fill="#283A5E"/>
<path d="M84.2969 35.0532V31.3969H85.5873V34.9815C85.5873 35.7701 86.1609 36.3436 86.9495 36.3436C87.8098 36.3436 88.5267 35.6267 88.5267 34.623V31.3969H89.8172V37.3473H88.5267V36.5587C88.0966 37.1322 87.4513 37.4907 86.7344 37.4907C85.2289 37.419 84.2969 36.487 84.2969 35.0532Z" fill="#283A5E"/>
<path d="M91.6829 35.6267C92.1131 36.0569 92.6149 36.4154 93.2601 36.4154C93.9054 36.4154 94.3355 36.1286 94.3355 35.6984C94.3355 35.2683 93.9771 34.9815 93.1885 34.8381C91.898 34.5514 91.2528 33.9061 91.2528 32.9741C91.2528 31.9704 92.0414 31.2535 93.3318 31.2535C94.5506 31.2535 95.4109 31.8987 95.5543 33.0458H94.2638C94.1922 32.6157 93.9054 32.3289 93.4035 32.3289C92.9017 32.3289 92.5432 32.6157 92.5432 32.9741C92.5432 33.3326 92.9017 33.6911 93.6186 33.8344C94.9808 34.1212 95.626 34.6947 95.626 35.6984C95.626 36.7021 94.7657 37.4907 93.3318 37.4907C92.3998 37.4907 91.6829 37.0606 91.1094 36.3437L91.6829 35.6267Z" fill="#283A5E"/>
<path d="M97.562 28.8877C97.9922 28.8877 98.3507 29.2462 98.3507 29.6763C98.3507 30.1065 97.9922 30.4649 97.562 30.4649C97.1319 30.4649 96.7734 30.1065 96.7734 29.6763C96.7734 29.2462 97.1319 28.8877 97.562 28.8877ZM96.9168 31.3252H98.2073V37.2757H96.9168V31.3252Z" fill="#283A5E"/>
<path d="M102.798 31.1816C104.662 31.1816 106.096 32.5438 106.096 34.3361C106.096 36.1284 104.734 37.4906 102.798 37.4906C100.934 37.4906 99.5 36.1284 99.5 34.3361C99.5 32.5438 100.934 31.1816 102.798 31.1816ZM102.798 36.2718C103.873 36.2718 104.734 35.4115 104.734 34.3361C104.734 33.2607 103.873 32.4004 102.798 32.4004C101.722 32.4004 100.862 33.2607 100.862 34.3361C100.862 35.4115 101.722 36.2718 102.798 36.2718Z" fill="#283A5E"/>
<path d="M112.833 33.6194V37.2757H111.542V33.6911C111.542 32.9024 110.969 32.3289 110.18 32.3289C109.392 32.3289 108.603 33.0458 108.603 33.9778V37.2757H107.312V31.3252H108.603V32.1138C109.033 31.5403 109.678 31.1818 110.395 31.1818C111.901 31.1818 112.833 32.1855 112.833 33.6194Z" fill="#283A5E"/>
<path fill-rule="evenodd" clip-rule="evenodd" d="M93.0156 22.4513V5.04446H99.7537C103 5.04446 105.015 6.93197 105.015 9.75704C105.015 11.4358 104.146 12.7289 102.865 13.2773C104.592 13.7496 105.899 15.2674 105.899 17.3672C105.899 20.3267 103.737 22.4513 100.555 22.4513H93.0156ZM99.4437 8.35452H97.0078V11.9579H99.4437C100.464 11.9579 101.184 11.314 101.184 10.1536C101.184 8.99843 100.464 8.35452 99.4437 8.35452ZM99.9532 15.14H97.0078V19.145H99.9532C101.05 19.145 101.816 18.349 101.816 17.1425C101.816 15.9255 101.05 15.14 99.9532 15.14Z" fill="#283A5E"/>
<path fill-rule="evenodd" clip-rule="evenodd" d="M112.832 5.04446V22.4513H108.719V5.04446H112.832Z" fill="#283A5E"/>
<path fill-rule="evenodd" clip-rule="evenodd" d="M6.94515 0H13.8903C15.8077 0 17.3637 1.55595 17.3637 3.47341V6.94848C17.3637 8.86593 15.8077 10.4219 13.8903 10.4219H0V6.94848C0 3.10857 3.10857 0 6.94515 0Z" fill="#FF4800"/>
<path fill-rule="evenodd" clip-rule="evenodd" d="M0 13.8955H13.8903C15.8077 13.8955 17.3637 15.4515 17.3637 17.3689V24.3174C17.3637 26.2348 15.8077 27.7908 13.8903 27.7908H6.94515C3.11191 27.7908 0 24.6789 0 20.844V13.8955Z" fill="#FF4800"/>
<path fill-rule="evenodd" clip-rule="evenodd" d="M24.3093 13.8955H27.7811V20.844C27.7811 24.6789 24.6692 27.7908 20.8359 27.7908V17.3689C20.8359 15.4481 22.3886 13.8955 24.3093 13.8955Z" fill="#FF4800"/>
<path fill-rule="evenodd" clip-rule="evenodd" d="M20.8359 0C24.6692 0 27.7811 3.11357 27.7811 6.94848V10.4219H24.3093C22.3919 10.4219 20.8359 8.86593 20.8359 6.94848V0Z" fill="#FF4800"/>
</svg>
