<svg width="345" height="337" viewBox="0 0 345 337" fill="none" xmlns="http://www.w3.org/2000/svg">
<path fill-rule="evenodd" clip-rule="evenodd" d="M100.748 0H201.496C229.311 0 251.883 22.5711 251.883 50.3862V100.797C251.883 128.612 229.311 151.183 201.496 151.183H0V100.797C0 45.0938 45.0938 0 100.748 0Z" fill="#FFEFEA"/>
<path fill-rule="evenodd" clip-rule="evenodd" d="M301.883 0C357.489 0 402.631 45.1663 402.631 100.797V151.183H352.269C324.454 151.183 301.883 128.612 301.883 100.797V0Z" fill="#FFEFEA"/>
<path fill-rule="evenodd" clip-rule="evenodd" d="M0 201.183H201.496C229.311 201.183 251.883 223.754 251.883 251.569V352.365C251.883 380.18 229.311 402.752 201.496 402.752H100.748C45.1422 402.752 0 357.609 0 301.979V201.183Z" fill="#FFEFEA"/>
<path fill-rule="evenodd" clip-rule="evenodd" d="M352.269 201.183H402.631V301.979C402.631 357.609 357.489 402.752 301.883 402.752V251.569C301.883 223.705 324.405 201.183 352.269 201.183Z" fill="#FFEFEA"/>
</svg>
