<svg width="48" height="48" viewBox="0 0 48 48" fill="none" xmlns="http://www.w3.org/2000/svg">
<circle cx="24" cy="24" r="24" fill="#FF4800"/>
<path fill-rule="evenodd" clip-rule="evenodd" d="M12.8943 22.2075C12.51 22.8026 12.2461 23.2717 12.1056 23.5528C11.9648 23.8343 11.9648 24.1657 12.1056 24.4472C12.2461 24.7283 12.51 25.1974 12.8943 25.7925C13.5305 26.7776 14.2811 27.762 15.1455 28.6839C17.6613 31.3675 20.6202 33 24 33C27.3798 33 30.3387 31.3675 32.8545 28.6839C33.7189 27.762 34.4695 26.7776 35.1057 25.7925C35.49 25.1974 35.7539 24.7283 35.8944 24.4472C36.0352 24.1657 36.0352 23.8343 35.8944 23.5528C35.7539 23.2717 35.49 22.8026 35.1057 22.2075C34.4695 21.2224 33.7189 20.238 32.8545 19.3161C30.3387 16.6325 27.3798 15 24 15C20.6202 15 17.6613 16.6325 15.1455 19.3161C14.2811 20.238 13.5305 21.2224 12.8943 22.2075ZM16.6047 27.317C15.8284 26.489 15.1493 25.5984 14.5746 24.7085C14.4114 24.4559 14.2667 24.2186 14.1409 24.001C14.2667 23.7833 14.4114 23.5461 14.5746 23.2935C15.1493 22.4035 15.8284 21.513 16.6047 20.6849C18.7764 18.3685 21.255 17.001 24.0002 17.001C26.7454 17.001 29.224 18.3685 31.3956 20.6849C32.1719 21.513 32.851 22.4035 33.4257 23.2935C33.5889 23.5461 33.7336 23.7833 33.8594 24.001C33.7336 24.2186 33.5889 24.4559 33.4257 24.7085C32.851 25.5984 32.1719 26.489 31.3956 27.317C29.224 29.6335 26.7454 31.001 24.0002 31.001C21.255 31.001 18.7764 29.6335 16.6047 27.317ZM24.0002 28.001C21.7911 28.001 20.0002 26.2101 20.0002 24.001C20.0002 21.7918 21.7911 20.001 24.0002 20.001C26.2094 20.001 28.0002 21.7918 28.0002 24.001C28.0002 26.2101 26.2094 28.001 24.0002 28.001ZM25.9998 23.999C25.9998 25.1036 25.1043 25.999 23.9998 25.999C22.8952 25.999 21.9998 25.1036 21.9998 23.999C21.9998 22.8945 22.8952 21.999 23.9998 21.999C25.1043 21.999 25.9998 22.8945 25.9998 23.999Z" fill="white"/>
</svg>
